<?xml version="1.0" standalone="no"?>
<!DOCTYPE svg PUBLIC "-//W3C//DTD SVG 20010904//EN"
        "http://www.w3.org/TR/2001/REC-SVG-20010904/DTD/svg10.dtd">
<svg version="1.0" xmlns="http://www.w3.org/2000/svg"
     width="602.000000pt" height="602.000000pt" viewBox="0 0 602.000000 602.000000"
     preserveAspectRatio="xMidYMid meet">
    <metadata>
        Created by potrace 1.11, written by Peter Selinger 2001-2013
    </metadata>
    <g transform="translate(0.000000,602.000000) scale(0.100000,-0.100000)"
       fill="#000000" stroke="none">
        <path d="M2710 5999 c-518 -57 -1005 -237 -1414 -524 -430 -301 -774 -705
-997 -1170 -200 -416 -291 -821 -292 -1290 -1 -296 22 -479 93 -760 210 -828
785 -1540 1560 -1932 913 -462 2015 -420 2895 110 475 286 880 719 1129 1210
170 333 267 660 312 1047 22 195 15 565 -15 760 -150 979 -762 1816 -1645
2250 -312 153 -553 228 -916 285 -124 20 -578 29 -710 14z m1430 -344 c0 -8
-250 -486 -280 -535 -15 -25 -96 -178 -180 -340 -84 -162 -183 -349 -220 -415
-111 -199 -192 -355 -185 -355 4 0 19 8 33 19 99 69 240 111 377 111 208 0
308 -80 309 -250 1 -142 -9 -164 -382 -860 -217 -404 -262 -496 -262 -527 0
-52 46 -20 271 190 145 135 146 136 174 214 123 348 460 764 790 976 228 146
467 225 652 215 107 -6 164 -38 205 -117 24 -46 28 -64 28 -140 0 -51 -7 -110
-16 -142 -24 -81 -88 -198 -149 -272 l-55 -67 -178 0 -177 0 35 27 c155 121
297 316 317 437 14 86 -49 108 -173 61 -142 -53 -353 -226 -501 -410 -160
-198 -309 -460 -368 -645 -36 -114 -45 -255 -20 -330 39 -116 131 -166 294
-157 217 11 460 144 725 397 l94 90 111 0 c61 0 111 -3 111 -7 0 -5 -24 -40
-53 -80 -243 -332 -600 -611 -905 -707 -414 -130 -769 62 -823 446 l-12 87
-206 -199 c-113 -110 -231 -219 -262 -243 -122 -94 -256 -144 -344 -128 -88
16 -110 48 -103 148 5 67 13 84 328 693 177 344 342 661 365 705 108 199 114
348 16 370 -42 9 -132 -10 -198 -42 -98 -48 -216 -181 -311 -348 -36 -64 -328
-611 -647 -1210 -71 -132 -173 -323 -228 -425 -115 -213 -193 -359 -395 -735
-79 -148 -149 -276 -154 -282 -8 -10 -58 -13 -189 -13 -99 0 -179 2 -179 5 0
8 250 486 280 535 15 25 96 178 180 340 84 162 185 354 225 425 40 72 116 213
170 315 54 102 145 273 203 380 188 349 383 724 406 780 67 160 53 258 -39
276 -38 7 -138 -17 -197 -47 -66 -34 -183 -154 -253 -259 -34 -52 -154 -266
-265 -474 -284 -534 -356 -647 -518 -818 -105 -110 -176 -166 -285 -223 -107
-56 -195 -83 -318 -94 -161 -15 -241 3 -306 71 -117 122 -65 353 122 543 91
93 161 143 290 207 107 54 331 128 384 128 6 0 -21 -47 -60 -104 -64 -93 -77
-106 -118 -122 -124 -46 -291 -165 -360 -256 -135 -179 -94 -286 82 -214 78
32 156 95 244 194 72 83 212 281 266 377 30 52 438 816 592 1108 l89 167 203
0 203 0 -32 -57 -33 -58 35 23 c74 48 193 103 258 118 46 11 103 15 181 13
l114 -4 120 230 c65 127 156 298 202 380 45 83 126 233 180 335 142 269 296
553 307 568 8 9 58 12 189 12 99 0 179 -2 179 -5z"/>
    </g>
</svg>
